<?xml version="1.0" standalone="no"?>
<!DOCTYPE svg PUBLIC "-//W3C//DTD SVG 20010904//EN"
 "http://www.w3.org/TR/2001/REC-SVG-20010904/DTD/svg10.dtd">
<svg version="1.0" xmlns="http://www.w3.org/2000/svg"
 width="1280.000000pt" height="1280.000000pt" viewBox="0 0 1280.000000 1280.000000"
 preserveAspectRatio="xMidYMid meet">

<g transform="translate(0.000000,1280.000000) scale(0.100000,-0.100000)"
fill="#ffffff" stroke="none">
<path d="M0 6400 l0 -6400 6400 0 6400 0 0 6400 0 6400 -6400 0 -6400 0 0
-6400z m6115 2882 l182 -524 137 247 c75 135 136 252 136 258 0 7 -13 35 -28
62 -15 28 -72 131 -126 230 -54 99 -107 195 -118 213 l-20 32 176 0 176 0 62
-125 c35 -69 65 -125 68 -125 3 0 33 56 68 125 l62 125 171 0 c93 0 168 -3
166 -7 -59 -104 -287 -522 -287 -527 0 -8 279 -518 289 -529 5 -4 74 112 155
258 l148 266 -83 152 c-45 84 -111 203 -146 265 -35 63 -63 115 -63 118 0 2
78 4 173 4 l173 0 64 -130 65 -131 65 131 65 130 168 0 c157 0 169 -1 162 -17
-3 -10 -67 -128 -142 -263 -75 -135 -136 -249 -136 -255 0 -5 37 -77 83 -160
185 -335 220 -398 220 -401 0 -2 -78 -4 -173 -4 l-173 0 -69 140 c-38 77 -72
140 -75 140 -3 0 -37 -63 -75 -140 l-70 -140 -332 0 -333 0 -70 140 c-39 77
-72 140 -74 140 -3 0 -37 -63 -78 -140 l-73 -140 -311 0 -311 0 -22 75 -23 75
-161 0 -162 0 -23 -75 -22 -75 -165 0 -165 0 10 23 c5 12 91 256 190 542 99
286 182 526 185 533 3 10 40 12 156 10 l152 -3 182 -523z m-1526 336 c51 -101
96 -186 100 -190 4 -4 49 78 101 182 l95 190 162 0 163 0 0 -550 0 -550 -155
0 -155 0 0 273 0 272 -103 -192 c-56 -106 -104 -193 -108 -193 -3 0 -50 84
-105 186 l-99 186 -3 -266 -2 -266 -150 0 -150 0 0 550 0 550 158 0 158 0 93
-182z m3961 -368 l0 -550 -152 0 -153 0 0 550 0 550 153 0 152 0 0 -550z
m-1443 -1052 c112 -41 178 -107 224 -223 19 -51 23 -78 23 -180 0 -100 -4
-129 -22 -176 -45 -113 -140 -187 -269 -210 l-61 -11 71 -36 c126 -65 159
-129 243 -462 60 -240 95 -325 149 -361 19 -13 35 -31 35 -39 0 -13 -17 -15
-107 -12 -60 1 -145 5 -191 8 -74 5 -83 8 -87 27 -3 12 -19 99 -35 192 -97
535 -159 665 -315 665 l-47 0 5 -337 c4 -283 7 -347 22 -393 19 -60 38 -88 72
-101 16 -6 20 -13 16 -30 -6 -22 -8 -22 -147 -16 -78 4 -187 7 -243 7 -91 0
-103 2 -103 18 0 9 13 24 29 33 33 19 54 75 71 184 7 45 10 291 8 700 l-3 630
-23 48 c-13 26 -33 52 -43 58 -23 12 -25 36 -3 41 9 2 168 0 353 -3 264 -4
345 -9 378 -21z m-1042 0 c5 -26 65 -417 65 -430 0 -4 -6 -8 -12 -8 -7 0 -32
33 -55 74 -132 232 -284 323 -485 290 l-38 -7 0 -333 0 -334 63 0 c173 0 279
76 325 232 9 32 23 58 30 58 9 0 12 -73 12 -330 0 -190 -4 -330 -9 -330 -5 0
-18 31 -30 69 -43 140 -187 227 -342 206 l-49 -7 0 -241 c1 -356 16 -438 91
-482 47 -28 131 -25 195 5 106 51 252 223 340 403 21 42 44 77 51 77 17 0 18
8 -16 -165 -16 -83 -41 -214 -56 -291 l-27 -142 -261 -6 c-144 -3 -362 -9
-484 -12 -215 -6 -223 -6 -223 13 0 11 11 23 29 30 18 6 37 26 50 50 42 83 45
145 46 798 0 682 -2 704 -56 749 -16 14 -29 34 -29 45 0 19 6 21 78 22 42 1
160 5 262 8 102 4 263 8 357 9 171 2 173 2 178 -20z m2204 -15 c30 -8 108 -41
174 -74 103 -52 118 -63 114 -81 -3 -11 -21 -112 -39 -224 -18 -116 -37 -203
-42 -201 -6 2 -16 38 -22 80 -22 141 -89 303 -156 374 -31 34 -99 63 -144 63
-122 0 -202 -136 -192 -326 8 -145 39 -178 288 -297 74 -36 159 -83 189 -105
113 -85 160 -192 168 -382 10 -212 -42 -374 -154 -487 -116 -115 -256 -148
-449 -103 -105 24 -245 89 -306 143 l-38 32 40 239 c22 132 40 242 40 244 0 2
7 -1 15 -8 8 -7 15 -25 15 -41 0 -39 25 -153 49 -222 48 -137 136 -262 214
-304 44 -23 141 -23 187 1 45 24 84 68 112 125 34 69 38 225 8 304 -42 111
-158 209 -280 237 -76 18 -117 40 -174 97 -67 66 -111 137 -142 230 -23 67
-27 95 -28 198 0 69 5 143 13 175 63 258 282 385 540 313z m-3570 -44 c141
-32 218 -131 229 -295 13 -213 -57 -345 -223 -425 -57 -27 -73 -39 -55 -39 48
0 139 -29 189 -60 128 -79 195 -261 170 -461 -14 -113 -41 -179 -101 -245 -95
-103 -218 -146 -474 -164 -195 -13 -381 -28 -451 -36 -65 -7 -69 8 -19 58 73
73 89 250 83 952 -4 554 -6 577 -53 621 -13 12 -24 29 -24 38 0 17 13 19 245
42 351 35 388 36 484 14z m-2573 -41 c10 -12 15 -19 9 -16 -6 4 -10 -24 -10
-75 -1 -52 -9 -115 -24 -172 l-23 -90 55 -125 c113 -258 185 -469 271 -792 92
-347 156 -663 156 -765 0 -54 -19 -90 -57 -108 -28 -14 -41 -15 -60 -6 -28 13
-58 75 -68 141 -30 205 -116 634 -166 835 -44 176 -161 556 -179 580 -4 6 -9
19 -11 30 -2 10 -25 -48 -51 -130 -68 -217 -66 -202 -26 -219 35 -15 58 -50
58 -89 0 -29 -207 -843 -226 -886 -14 -31 -17 -33 -50 -28 -76 13 -132 87
-106 141 17 34 53 186 47 197 -4 5 -1 9 6 9 6 0 9 8 6 20 -3 11 -1 20 5 20 6
0 8 11 6 25 -3 13 0 26 5 28 6 2 11 19 11 39 1 20 3 34 5 32 3 -2 29 95 58
216 29 122 55 225 58 231 10 15 57 10 104 -11 51 -24 62 -25 55 -6 -7 18 -119
49 -150 42 -16 -4 -24 -2 -24 7 0 17 71 274 115 416 34 108 35 118 23 164 -9
34 -9 53 -2 65 14 22 51 27 71 10 13 -10 17 -10 20 0 3 6 8 10 13 7 5 -3 17
16 27 42 13 36 18 73 17 146 0 53 2 97 6 97 4 0 15 -10 26 -22z m6884 -38 c91
-11 175 -22 188 -25 31 -7 28 -37 -6 -56 -18 -10 -32 -30 -41 -58 -15 -51 -29
-621 -15 -621 5 0 90 -11 189 -25 99 -14 193 -25 209 -25 l29 0 -6 283 c-6
299 -15 364 -57 402 -28 25 -26 55 3 54 12 0 105 -14 207 -32 170 -29 185 -34
188 -54 2 -15 -3 -23 -18 -28 -12 -4 -29 -23 -38 -43 -15 -33 -17 -102 -20
-604 -4 -749 5 -858 78 -902 18 -10 30 -25 30 -38 0 -17 -5 -19 -32 -15 -18 3
-89 14 -158 23 -317 42 -295 37 -298 62 -3 16 2 22 16 22 24 0 56 36 71 80 24
69 41 673 19 686 -12 7 -342 53 -386 54 l-32 0 5 -292 c7 -383 21 -465 83
-493 20 -9 33 -55 15 -55 -20 0 -441 42 -460 46 -32 6 -30 42 2 54 30 11 50
49 73 137 15 61 17 132 17 713 0 700 2 673 -54 724 -12 11 -21 28 -21 38 0 16
5 19 28 14 15 -3 101 -15 192 -26z m-5525 -74 c87 -40 135 -115 157 -244 15
-89 0 -209 -36 -288 -47 -102 -158 -193 -275 -224 l-44 -12 67 -22 c128 -43
176 -121 249 -406 25 -96 55 -200 66 -231 22 -57 68 -113 102 -124 12 -4 19
-14 17 -23 -3 -14 -33 -20 -186 -35 -101 -11 -186 -16 -189 -13 -3 3 -25 103
-49 223 -91 452 -147 573 -265 573 -24 0 -54 -3 -66 -6 l-23 -6 0 -282 c0
-377 16 -469 82 -497 15 -6 28 -19 28 -29 0 -14 -32 -21 -232 -49 -128 -17
-239 -31 -245 -31 -23 0 -14 31 16 56 16 13 36 45 45 70 33 96 37 201 34 799
-3 573 -4 591 -23 625 -12 19 -31 39 -43 45 -30 13 -28 43 2 51 14 3 152 28
308 54 334 57 426 62 503 26z m7166 -162 c221 -66 403 -277 493 -574 72 -239
76 -565 9 -775 -79 -247 -254 -386 -470 -373 -382 24 -650 474 -619 1041 19
369 153 614 371 683 56 18 152 17 216 -2z m939 -303 c342 -98 412 -126 526
-207 85 -60 148 -134 191 -223 33 -68 38 -86 41 -172 7 -159 -38 -258 -139
-310 -87 -44 -272 -43 -399 2 -30 11 -63 23 -74 26 -18 6 -19 -2 -13 -253 2
-142 10 -282 17 -311 13 -61 46 -114 78 -128 12 -5 22 -18 22 -28 0 -14 -5
-16 -27 -10 -16 4 -127 30 -248 58 -175 40 -220 54 -223 68 -2 11 3 17 15 17
11 0 29 9 41 20 54 50 64 200 59 830 -4 546 -5 563 -52 619 -30 34 -33 65 -7
57 9 -3 96 -28 192 -55z m-10313 -6 c101 -30 142 -101 143 -246 0 -197 -65
-311 -237 -415 l-57 -34 73 0 c87 0 132 -12 186 -49 55 -37 91 -95 110 -173
55 -240 -46 -460 -260 -566 -98 -49 -150 -65 -475 -147 -163 -41 -303 -77
-313 -81 -27 -10 -21 25 8 48 31 24 62 121 76 242 6 57 9 282 7 601 -4 545 -5
561 -53 583 -57 26 -32 39 238 126 399 130 454 141 554 111z m4704 -1341 c27
-24 24 -53 -11 -107 -32 -51 -64 -61 -94 -31 -33 33 -33 109 2 147 20 22 73
18 103 -9z m864 4 c122 -30 186 -137 143 -238 -21 -49 -87 -111 -153 -144 -53
-28 -74 -29 -131 -11 -19 6 -21 2 -27 -56 -4 -34 -7 -86 -7 -115 0 -29 -4 -55
-8 -58 -10 -6 -87 28 -96 42 -4 6 3 55 14 109 82 379 81 369 44 412 l-26 31
35 15 c20 8 39 20 42 26 8 12 99 5 170 -13z m-2287 -103 c29 -6 33 -10 28 -33
-3 -15 -10 -61 -16 -102 -6 -41 -15 -93 -20 -114 -5 -24 -5 -46 0 -55 9 -15 9
-15 10 0 0 26 39 98 58 108 22 12 87 -15 117 -49 17 -19 20 -35 18 -124 l-1
-101 29 35 c16 19 29 42 29 53 0 10 7 47 17 84 18 74 76 149 107 137 9 -3 28
1 42 11 23 15 27 15 49 1 86 -56 27 -276 -74 -276 -26 0 -31 -4 -31 -24 0 -29
42 -76 69 -76 11 0 32 11 48 24 36 30 93 145 93 186 0 43 35 129 67 162 21 22
35 28 70 28 63 0 143 -44 143 -78 0 -8 12 -26 26 -39 18 -17 24 -31 21 -46
-13 -51 -19 -167 -10 -167 27 0 88 118 78 151 -3 10 -1 36 6 59 12 38 11 42
-14 68 -31 32 -34 60 -11 104 14 27 19 29 47 24 51 -10 62 -27 42 -66 -9 -17
-14 -34 -11 -38 3 -3 24 0 46 7 33 10 45 9 72 -5 58 -29 58 -30 39 -87 -29
-85 -43 -156 -37 -182 19 -76 98 34 111 155 10 89 16 110 34 120 23 12 91 -6
91 -24 0 -7 -9 -57 -21 -111 -22 -109 -22 -148 2 -153 25 -5 60 64 70 136 18
128 75 212 144 212 62 0 145 -48 145 -83 0 -12 9 -28 20 -35 24 -14 25 -42 8
-141 -7 -39 -8 -74 -4 -78 12 -12 59 49 81 107 23 59 42 80 50 58 7 -18 -25
-103 -60 -158 -32 -51 -67 -74 -100 -66 -27 7 -75 54 -75 73 0 23 -17 13 -30
-17 -36 -87 -98 -104 -150 -42 l-30 37 -26 -32 c-35 -45 -83 -46 -126 -2 l-31
30 -35 -35 c-45 -47 -90 -49 -133 -7 -34 35 -37 66 -14 184 19 100 19 97 -7
97 -42 0 -52 -15 -53 -82 -3 -109 -71 -237 -127 -238 -31 0 -69 23 -84 52 -20
38 -29 35 -48 -12 -19 -49 -49 -80 -77 -80 -12 0 -39 18 -62 40 l-40 40 -34
-39 c-18 -22 -48 -47 -65 -55 -71 -36 -156 -6 -191 67 -10 20 -23 37 -29 37
-5 0 -45 -36 -88 -80 -45 -47 -91 -84 -108 -89 -40 -12 -104 17 -128 58 -20
33 -34 40 -34 17 0 -25 -65 -86 -91 -86 -36 0 -88 36 -95 66 -4 14 -4 75 -2
135 5 106 5 109 -16 109 -11 0 -26 -4 -32 -8 -15 -10 -26 -70 -13 -77 13 -9 2
-86 -24 -154 -39 -107 -101 -132 -164 -65 -33 35 -34 36 -40 15 -14 -53 -49
-106 -71 -109 -37 -5 -75 15 -102 55 -23 34 -25 45 -25 152 1 100 4 122 23
158 28 54 56 73 107 73 53 0 129 -38 133 -66 2 -12 14 -27 28 -34 23 -13 24
-18 24 -111 0 -101 10 -127 35 -93 23 32 38 96 40 177 3 75 2 78 -26 98 -23
16 -29 28 -29 57 0 55 25 86 63 78 48 -10 57 -21 44 -61 -14 -45 -5 -52 39
-32 34 17 37 16 80 -2 50 -22 50 -25 29 -121 -27 -123 -13 -208 27 -162 45 50
51 82 55 257 3 175 16 290 35 313 6 7 18 10 27 8 9 -2 31 -8 49 -11z m3916
-16 c30 -23 33 -56 11 -99 -16 -30 -64 -70 -86 -70 -42 0 -62 66 -38 127 24
64 65 80 113 42z m-1359 -36 c38 -18 42 -29 20 -59 -25 -33 -18 -42 29 -37 35
4 53 0 80 -17 42 -26 44 -40 12 -106 -31 -65 -57 -151 -49 -169 16 -42 69 13
121 125 68 146 114 195 174 183 15 -3 34 0 42 6 10 8 19 6 40 -10 22 -17 26
-28 26 -70 0 -105 -87 -205 -160 -186 -28 7 -33 -7 -20 -48 21 -63 70 -72 125
-23 50 43 91 105 105 158 20 77 42 140 50 145 9 6 69 -13 87 -27 9 -7 7 -21
-7 -59 -26 -65 -25 -83 2 -39 34 55 108 140 122 140 8 0 33 -17 57 -39 l44
-38 -24 -57 c-13 -31 -20 -60 -16 -64 4 -4 10 -1 13 7 5 16 91 123 106 133 21
14 37 8 81 -33 l44 -41 -19 -38 c-31 -61 -70 -170 -70 -196 0 -37 33 -30 72
15 22 26 41 66 56 116 25 85 47 125 69 125 23 0 73 -29 73 -43 0 -7 -16 -52
-35 -101 -56 -142 -56 -187 -1 -151 27 18 54 71 86 170 28 86 59 145 77 145
28 0 73 -31 73 -50 0 -11 -11 -43 -24 -72 -37 -79 -76 -180 -76 -195 0 -24 27
-13 61 25 19 20 57 81 84 134 28 54 55 99 60 102 6 2 27 -3 48 -11 43 -17 45
-32 17 -90 -27 -56 -70 -187 -70 -212 0 -67 90 29 120 127 31 105 58 162 78
162 20 0 82 -36 82 -48 0 -5 -11 -31 -25 -58 -36 -70 -31 -74 17 -13 61 80
100 119 117 119 19 0 91 -77 91 -98 0 -9 -11 -37 -25 -61 -36 -63 -31 -73 13
-22 63 75 101 111 116 111 20 0 83 -56 91 -81 4 -12 -9 -48 -38 -102 -60 -112
-70 -142 -51 -158 19 -16 76 29 119 94 29 45 55 61 55 34 0 -17 -55 -105 -89
-140 -36 -40 -76 -59 -106 -51 -29 7 -72 55 -81 89 -7 29 20 123 53 184 13 24
22 48 20 55 -7 21 -52 -42 -111 -156 -32 -62 -63 -119 -69 -125 -15 -21 -36
-15 -69 17 -28 28 -30 35 -24 78 4 26 20 85 37 132 42 115 43 120 31 120 -17
0 -46 -47 -106 -173 -31 -65 -64 -121 -73 -124 -11 -5 -27 6 -49 32 l-33 38
-37 -33 c-30 -26 -42 -31 -68 -26 -45 9 -76 48 -76 98 l0 41 -50 -47 c-27 -25
-52 -46 -55 -46 -22 0 -74 32 -80 49 -8 27 -15 26 -44 -4 -53 -57 -121 -39
-145 38 -6 17 -10 16 -41 -12 -40 -35 -64 -38 -106 -14 -63 38 -69 95 -22 231
13 41 23 75 21 78 -11 10 -49 -48 -76 -116 -53 -132 -80 -187 -95 -193 -8 -3
-31 9 -52 26 -37 30 -37 31 -32 86 4 31 18 96 32 145 51 176 -8 105 -82 -99
-30 -80 -50 -115 -68 -115 -7 0 -27 16 -44 35 -17 19 -33 35 -36 35 -4 0 -20
-13 -36 -29 -39 -40 -108 -65 -153 -57 -47 9 -90 47 -110 97 l-17 41 -29 -40
c-49 -68 -89 -79 -138 -37 -44 37 -47 67 -16 170 14 50 29 98 31 108 4 13 -1
17 -25 17 -38 0 -47 -11 -71 -95 -44 -153 -52 -165 -87 -131 -20 21 -19 25 31
124 48 96 54 119 30 128 -39 15 -37 68 3 117 19 21 23 21 67 0z m-3618 -104
c95 2 147 -9 184 -41 79 -70 65 -134 -59 -260 -39 -40 -51 -59 -41 -62 8 -3
34 -10 59 -17 98 -25 128 -76 90 -154 -27 -55 -91 -110 -160 -136 l-52 -20
-52 24 c-29 13 -64 36 -79 51 -29 29 -30 39 -28 226 1 47 -3 121 -8 165 -8 72
-12 82 -43 107 l-33 28 30 25 c17 14 33 25 36 25 3 0 11 12 17 26 10 20 17 24
35 18 12 -4 59 -6 104 -5z m3523 -579 c42 -21 159 -126 189 -169 42 -59 41
-62 -78 -188 -61 -65 -173 -183 -249 -262 l-139 -145 -27 21 c-15 12 -33 20
-39 17 -7 -2 -46 31 -87 73 -70 73 -49 59 48 -31 64 -60 50 -34 -22 42 -109
115 -139 152 -124 152 8 0 58 -48 112 -106 70 -74 102 -102 109 -95 8 8 2 21
-19 43 -16 18 -62 68 -102 111 -114 122 -84 114 40 -11 71 -71 115 -109 121
-103 6 6 -26 48 -89 116 -55 58 -100 110 -102 116 -11 29 28 -3 115 -96 97
-104 113 -117 113 -92 0 11 -38 56 -173 204 -11 13 -17 26 -14 30 4 3 52 -42
108 -101 68 -71 105 -104 112 -97 7 7 -24 47 -92 121 -57 62 -100 115 -96 118
4 4 54 -42 112 -101 75 -77 109 -105 116 -98 8 8 -5 28 -44 69 -107 111 -151
163 -144 170 4 4 53 -42 109 -102 66 -70 107 -107 115 -102 13 8 -2 27 -121
154 -62 67 -79 92 -62 92 3 0 52 -48 108 -107 64 -66 107 -104 114 -99 8 5
-24 47 -94 123 -58 63 -102 118 -99 122 4 3 55 -44 115 -105 98 -100 120 -117
120 -93 0 4 -41 51 -91 106 -95 103 -120 137 -95 127 7 -3 55 -50 106 -105 80
-87 120 -117 120 -91 0 4 -45 56 -100 116 -55 60 -100 114 -100 119 0 12 -8
19 116 -104 140 -140 157 -123 23 22 -55 60 -99 114 -97 120 2 6 52 -39 111
-102 79 -84 108 -109 112 -97 4 10 -10 34 -42 68 -122 132 -143 155 -143 163
0 20 26 -2 115 -99 68 -73 101 -102 108 -95 12 12 15 7 -116 150 -43 46 -75
86 -72 89 3 3 54 -43 114 -102 136 -136 160 -126 29 11 -52 54 -100 106 -107
116 -18 23 -1 22 49 -3z m-822 -274 c138 -132 249 -243 246 -247 -2 -4 24 -40
58 -80 114 -131 120 -139 105 -139 -7 0 -54 41 -102 92 -49 50 -91 86 -93 80
-5 -17 171 -204 179 -190 6 9 11 8 23 -1 8 -7 20 -10 26 -6 8 5 11 -1 8 -16
-2 -18 -10 -25 -32 -27 -25 -3 -41 10 -128 102 -55 58 -105 106 -111 106 -7 0
-17 8 -23 18 -6 9 -100 129 -208 266 -192 242 -228 292 -208 285 5 -2 122
-112 260 -243z m-2145 -343 l1387 -6 0 -24 0 -23 -628 0 c-346 0 -1237 3
-1980 7 l-1352 6 0 24 0 23 593 0 c325 0 1216 -3 1980 -7z m6990 -20 c246 -6
247 -6 247 -28 l0 -22 -1762 4 c-970 3 -1769 6 -1775 8 -7 3 -13 14 -13 25 l0
20 1528 0 c840 0 1638 -3 1775 -7z m-4594 -110 c56 -59 101 -100 101 -92 0 9
-9 24 -21 35 -12 10 -30 33 -41 49 -11 17 3 5 30 -25 28 -30 48 -58 45 -62 -2
-5 16 -8 41 -8 25 0 46 -4 46 -9 0 -5 11 -12 24 -15 19 -5 26 -15 31 -47 10
-59 77 -186 130 -246 35 -40 60 -57 113 -77 38 -15 101 -49 140 -77 l72 -50 0
-49 c0 -69 -18 -144 -44 -182 -88 -131 -303 -86 -356 75 -18 57 -14 142 11
212 l23 62 -23 59 c-18 50 -135 251 -160 277 -7 7 -79 -64 -400 -400 -95 -100
-180 -184 -188 -187 -8 -3 -27 1 -42 9 -34 17 -126 120 -170 189 -29 47 -40
87 -23 85 4 0 50 -47 102 -105 82 -89 120 -121 120 -98 0 3 -45 55 -101 116
-55 60 -98 112 -94 116 4 4 54 -42 111 -101 57 -60 108 -106 114 -102 11 7 -2
23 -124 159 -105 117 -70 103 45 -17 56 -59 106 -107 110 -107 23 0 0 34 -86
128 -52 56 -95 108 -95 115 0 6 48 -36 107 -96 144 -145 162 -127 23 23 -56
61 -99 114 -95 118 4 4 53 -42 110 -102 63 -67 107 -106 114 -102 13 8 -5 32
-93 126 -87 95 -100 110 -94 116 4 3 54 -43 111 -103 70 -72 109 -105 116 -98
6 7 -24 46 -90 117 -54 60 -99 114 -99 120 0 7 48 -35 107 -94 58 -60 110
-108 115 -108 21 0 1 29 -84 122 -96 103 -116 128 -100 128 5 0 56 -50 112
-110 69 -74 106 -108 113 -101 7 7 -9 32 -49 76 -128 142 -147 166 -141 171 3
3 52 -42 108 -100 56 -58 109 -106 116 -106 23 0 15 11 -89 124 -54 59 -98
112 -98 119 1 6 50 -39 111 -101 77 -79 111 -108 115 -97 4 9 -27 50 -88 115
-51 55 -94 105 -96 110 -10 28 23 0 112 -96 69 -73 102 -102 109 -95 8 8 3 19
-14 38 -14 16 -60 66 -102 112 -42 46 -75 87 -72 90 3 3 54 -44 114 -103 137
-137 159 -126 29 15 -97 105 -116 129 -99 129 5 0 54 -48 109 -106 58 -61 105
-103 111 -99 14 8 4 21 -104 139 -82 90 -94 106 -77 106 6 0 54 -47 108 -105
54 -58 101 -105 106 -105 22 0 -1 34 -87 128 -52 57 -95 109 -95 115 0 7 49
-37 109 -97 136 -135 162 -128 34 10 -100 108 -120 134 -105 134 6 0 56 -48
111 -107z m364 -66 c40 -24 103 -56 142 -73 50 -21 83 -43 120 -82 81 -86 95
-92 216 -89 149 3 186 -20 257 -160 30 -58 80 -86 153 -86 54 1 58 0 49 -18
-17 -31 -44 -38 -117 -32 l-70 6 -34 -42 c-36 -44 -83 -74 -136 -85 -71 -16
-181 41 -224 117 -21 36 -24 55 -24 137 0 82 -3 99 -22 126 -31 43 -92 97
-144 127 -63 36 -224 98 -274 106 l-43 6 36 42 c20 23 38 42 40 42 2 1 36 -18
75 -42z"/>
<path d="M5734 9240 l-41 -130 84 0 c76 0 84 2 79 18 -48 152 -77 242 -79 242
-1 0 -21 -58 -43 -130z"/>
<path d="M6440 8162 c0 -4 4 -12 9 -17 6 -6 17 -37 26 -70 14 -50 18 -132 22
-490 7 -628 -10 -912 -61 -990 -23 -35 -20 -42 8 -16 13 13 33 44 44 69 43
102 47 165 47 777 l0 580 -23 65 c-23 63 -46 100 -64 100 -4 0 -8 -4 -8 -8z"/>
<path d="M6720 7796 l0 -336 66 0 c88 0 136 16 188 61 69 61 90 121 91 259 0
130 -11 177 -58 246 -45 67 -104 96 -208 102 l-79 5 0 -337z"/>
<path d="M5263 8132 c46 -48 48 -81 45 -778 -4 -716 -3 -704 -68 -785 -37 -47
-24 -51 24 -9 44 39 72 121 87 255 16 152 7 1208 -11 1258 -15 41 -61 87 -88
87 -12 0 -9 -7 11 -28z"/>
<path d="M8026 8164 c-177 -55 -276 -219 -276 -458 0 -192 74 -350 213 -457
39 -31 38 -29 -14 27 -107 114 -153 240 -153 424 0 260 93 399 309 461 l60 18
-45 0 c-25 0 -67 -7 -94 -15z"/>
<path d="M8211 7132 c183 -117 247 -386 130 -557 -24 -36 -42 -51 -107 -92
-15 -9 -10 -9 23 -1 88 21 165 121 184 238 18 115 -21 271 -88 350 -38 44
-120 90 -162 90 -22 0 -19 -4 20 -28z"/>
<path d="M4045 8033 c13 -18 27 -59 32 -91 4 -31 8 -313 8 -627 -1 -499 -3
-582 -18 -664 -10 -52 -27 -115 -38 -139 -19 -45 -19 -45 1 -27 30 27 57 92
77 185 16 76 18 144 18 670 0 614 -2 637 -45 692 -11 14 -28 28 -39 31 -17 4
-17 2 4 -30z"/>
<path d="M4310 7719 l0 -332 59 6 c128 14 209 65 251 159 44 101 45 310 1 395
-39 77 -93 102 -223 103 l-88 0 0 -331z"/>
<path d="M4366 7312 l-58 -3 5 -322 c5 -350 11 -394 59 -430 21 -15 42 -20 95
-20 127 0 199 62 244 208 20 64 29 214 18 292 -28 208 -132 287 -363 275z"/>
<path d="M1986 7713 c-9 -22 10 -41 25 -26 13 13 5 43 -10 43 -5 0 -12 -8 -15
-17z"/>
<path d="M2434 6066 c-6 -17 2 -36 17 -36 12 0 12 37 -1 45 -6 3 -13 -1 -16
-9z"/>
<path d="M8858 8018 c46 -50 46 -54 50 -628 2 -347 0 -586 -7 -657 -14 -139
-42 -235 -78 -262 -24 -20 -24 -21 -5 -21 30 0 69 46 92 107 37 98 41 193 38
798 -3 630 -3 630 -59 669 -36 25 -57 21 -31 -6z"/>
<path d="M3095 7896 c-5 -3 -27 -7 -47 -11 l-38 -6 0 -325 0 -326 28 6 c15 2
45 8 66 11 146 24 244 149 254 324 8 153 -34 268 -112 305 -35 17 -130 30
-151 22z"/>
<path d="M2734 7845 c42 -45 46 -103 46 -701 0 -582 -5 -682 -41 -763 -24 -55
-24 -58 1 -36 26 24 55 104 69 192 7 46 11 269 11 626 0 601 -2 630 -55 683
-34 34 -62 32 -31 -1z"/>
<path d="M10453 7806 c-63 -20 -107 -51 -169 -119 -135 -150 -192 -365 -181
-687 9 -246 46 -393 143 -566 66 -118 165 -217 265 -267 98 -48 132 -48 50 1
-202 118 -348 347 -396 621 -48 274 -17 575 78 756 42 80 150 188 219 220 30
14 84 31 119 39 l64 14 -75 0 c-41 1 -94 -5 -117 -12z"/>
<path d="M10545 7756 c-104 -46 -167 -241 -184 -570 -10 -199 0 -465 24 -601
49 -281 162 -437 299 -411 104 20 172 155 208 411 19 135 16 543 -5 685 -41
281 -129 458 -242 489 -50 14 -63 13 -100 -3z"/>
<path d="M11461 7483 c33 -67 39 -166 39 -649 0 -607 -11 -722 -78 -774 -22
-18 -23 -20 -5 -20 34 0 71 38 95 98 l23 57 0 590 0 590 -35 70 c-19 38 -40
71 -46 73 -7 2 -4 -13 7 -35z"/>
<path d="M11720 7066 l0 -335 74 -16 c157 -35 245 33 267 208 24 185 -49 350
-185 419 -34 17 -141 58 -153 58 -1 0 -3 -150 -3 -334z"/>
<path d="M871 7374 c-29 -8 -57 -17 -62 -20 -5 -3 -9 -138 -9 -301 l0 -295 38
7 c120 21 243 115 282 215 31 77 38 226 16 302 -24 83 -58 108 -144 107 -37 0
-91 -7 -121 -15z"/>
<path d="M540 7273 c37 -51 42 -143 37 -683 -5 -525 -8 -572 -52 -676 -21 -52
4 -39 32 17 57 111 58 127 58 729 0 535 -1 556 -20 595 -15 30 -27 41 -48 43
l-29 3 22 -28z"/>
<path d="M870 6702 l-65 -17 1 -255 c1 -300 7 -360 39 -397 20 -24 29 -27 78
-26 150 4 267 124 297 305 21 135 5 275 -41 339 -48 68 -167 88 -309 51z"/>
<path d="M6762 6108 c-20 -25 -74 -256 -61 -264 12 -7 56 18 121 69 97 75 130
130 100 167 -27 34 -139 53 -160 28z"/>
<path d="M6127 5878 c-14 -29 -29 -81 -35 -115 -11 -61 -6 -133 8 -133 14 0
40 38 70 102 56 124 58 198 6 198 -20 0 -29 -10 -49 -52z"/>
<path d="M5282 5888 c-55 -71 -80 -280 -34 -296 15 -5 64 100 86 185 17 68 11
105 -19 117 -22 8 -21 8 -33 -6z"/>
<path d="M4946 5798 c-29 -67 -39 -108 -27 -108 13 0 24 21 44 80 8 25 18 53
22 63 4 10 3 17 -4 17 -7 0 -22 -24 -35 -52z"/>
<path d="M4617 5809 c-31 -47 -58 -120 -55 -147 3 -27 61 -76 82 -69 18 6 20
198 3 221 -14 19 -15 19 -30 -5z"/>
<path d="M3906 5708 c-44 -67 -48 -288 -5 -296 25 -5 60 97 74 219 6 50 4 60
-14 78 -27 27 -37 26 -55 -1z"/>
<path d="M4540 5560 c0 -12 12 -32 26 -46 24 -25 26 -25 45 -8 27 24 24 31
-21 54 -49 25 -50 25 -50 0z"/>
<path d="M7508 5863 c-24 -27 -80 -125 -74 -130 9 -10 25 8 61 67 36 60 44 98
13 63z"/>
<path d="M3502 5849 c-23 -4 -47 -11 -52 -14 -6 -4 -10 -60 -10 -131 0 -101 3
-124 14 -124 8 0 41 26 73 58 173 168 164 249 -25 211z"/>
<path d="M3510 5499 c-13 -6 -35 -7 -49 -4 l-24 6 6 -78 c10 -126 19 -134 98
-85 86 55 130 127 97 160 -14 14 -93 15 -128 1z"/>
<path d="M6586 4455 c4 -8 12 -15 19 -15 7 0 18 7 25 15 11 13 8 15 -18 15
-24 0 -30 -4 -26 -15z"/>
<path d="M6880 4033 c-23 -9 -60 -45 -76 -75 -33 -63 -4 -164 61 -214 28 -21
51 -29 94 -32 53 -4 61 -2 93 26 65 58 71 152 13 227 -44 58 -128 89 -185 68z"/>
<path d="M7264 4221 c-94 -43 -100 -180 -11 -258 50 -44 105 -60 156 -44 132
39 133 232 1 299 -54 27 -92 28 -146 3z"/>
</g>
</svg>
